<svg width="408" height="264" viewBox="0 0 408 264" fill="none" xmlns="http://www.w3.org/2000/svg">
<g id="Mask group">
<mask id="mask0_0_989" style="mask-type:alpha" maskUnits="userSpaceOnUse" x="0" y="0" width="408" height="264">
<path id="Subtract" d="M0 12.4744C0 5.58519 5.5848 0.000396729 12.474 0.000396729H395.526C402.415 0.000396729 408 5.58519 408 12.4744V251.526C408 258.415 402.415 264 395.526 264H12.474C5.58481 264 0 258.415 0 251.526V12.4744Z" fill="#3DD598"/>
</mask>
<g mask="url(#mask0_0_989)">
<g id="Group 1000009214">
<path id="Vector" d="M467.311 -6.10376C433.537 -16.8427 430.312 -2.60722 396.508 -13.3558C362.734 -24.0948 365.958 -38.3303 332.154 -49.0789C298.38 -59.8178 295.155 -45.5823 261.35 -56.3309C227.576 -67.0699 230.801 -81.3054 196.996 -92.0539C163.192 -102.803 159.967 -88.567 126.193 -99.306C92.3887 -110.055 95.6134 -124.29 61.8391 -135.029C28.0648 -145.768 24.8101 -131.542 -8.96424 -142.281" stroke="#3D405B" stroke-opacity="0.16" stroke-width="0.824934" stroke-miterlimit="10"/>
<path id="Vector_2" d="M460.873 26.755C427.099 16.016 423.874 30.2515 390.07 19.503C356.295 8.76398 359.52 -5.47152 325.716 -16.2201C291.941 -26.959 288.717 -12.7235 254.912 -23.4721C221.138 -34.2111 224.363 -48.4466 190.558 -59.1951C156.754 -69.9436 153.529 -55.7081 119.755 -66.4471C85.9504 -77.1957 89.175 -91.4312 55.4007 -102.17C21.6264 -112.909 18.3717 -98.6832 -15.4026 -109.422" stroke="#3D405B" stroke-opacity="0.16" stroke-width="0.824934" stroke-miterlimit="10"/>
<path id="Vector_3" d="M454.431 59.6183C420.657 48.8794 417.432 63.1149 383.628 52.3663C349.854 41.6274 353.078 27.3919 319.274 16.6433C285.5 5.90433 282.275 20.1398 248.471 9.39129C214.696 -1.34768 217.921 -15.5832 184.116 -26.3317C150.312 -37.0803 147.087 -22.8448 113.313 -33.5837C79.5087 -44.3323 82.7333 -58.5678 48.959 -69.3068C15.1847 -80.0457 11.93 -65.8198 -21.8443 -76.5588" stroke="#3D405B" stroke-opacity="0.16" stroke-width="0.824934" stroke-miterlimit="10"/>
<path id="Vector_4" d="M447.993 92.4771C414.219 81.7382 410.994 95.9737 377.19 85.2251C343.415 74.4861 346.64 60.2506 312.836 49.502C279.061 38.7631 275.837 52.9986 242.032 42.25C208.258 31.511 211.483 17.2755 177.678 6.52694C143.874 -4.22162 140.649 10.0139 106.875 -0.725074C73.0706 -11.4736 76.2952 -25.7092 42.5209 -36.4481C8.74664 -47.1871 5.4919 -32.9612 -28.2824 -43.7002" stroke="#3D405B" stroke-opacity="0.16" stroke-width="0.824934" stroke-miterlimit="10"/>
<path id="Vector_5" d="M441.551 125.336C407.777 114.597 404.552 128.832 370.748 118.084C336.974 107.345 340.198 93.1093 306.394 82.3608C272.62 71.6218 269.395 85.8573 235.591 75.1087C201.816 64.3698 205.041 50.1342 171.237 39.3857C137.432 28.6371 134.208 42.8726 100.433 32.1336C66.6288 21.3851 69.8535 7.14955 36.0792 -3.58944C2.30489 -14.3284 -0.949846 -0.102467 -34.7241 -10.8415" stroke="#3D405B" stroke-opacity="0.16" stroke-width="0.824934" stroke-miterlimit="10"/>
<path id="Vector_6" d="M435.112 158.199C401.337 147.46 398.113 161.696 364.308 150.947C330.534 140.208 333.759 125.973 299.954 115.224C266.18 104.485 262.955 118.721 229.151 107.972C195.377 97.2331 198.601 82.9976 164.797 72.2491C130.993 61.5005 127.768 75.736 93.9936 64.997C60.1892 54.2485 63.4138 40.0129 29.6395 29.274C-4.13477 18.535 -7.38951 32.7609 -41.1638 22.0219" stroke="#3D405B" stroke-opacity="0.16" stroke-width="0.824934" stroke-miterlimit="10"/>
<path id="Vector_7" d="M428.673 191.058C394.899 180.319 391.674 194.555 357.87 183.806C324.095 173.067 327.32 158.831 293.516 148.083C259.741 137.344 256.517 151.579 222.712 140.831C188.938 130.092 192.163 115.856 158.358 105.108C124.554 94.3592 121.329 108.595 87.5548 97.8558C53.7504 87.1072 56.9751 72.8717 23.2008 62.1327C-10.5735 51.3937 -13.8282 65.6197 -47.6025 54.8807" stroke="#3D405B" stroke-opacity="0.16" stroke-width="0.824934" stroke-miterlimit="10"/>
<path id="Vector_8" d="M422.233 223.921C388.459 213.182 385.234 227.418 351.43 216.669C317.656 205.93 320.88 191.695 287.076 180.946C253.302 170.207 250.077 184.443 216.273 173.694C182.498 162.955 185.723 148.72 151.918 137.971C118.114 127.222 114.889 141.458 81.1151 130.719C47.3107 119.97 50.5353 105.735 16.761 94.9958C-17.0133 84.2568 -20.268 98.4828 -54.0423 87.7438" stroke="#3D405B" stroke-opacity="0.16" stroke-width="0.824934" stroke-miterlimit="10"/>
<path id="Vector_9" d="M415.793 256.78C382.019 246.041 378.794 260.277 344.99 249.528C311.215 238.789 314.44 224.554 280.636 213.805C246.861 203.066 243.637 217.302 209.832 206.553C176.058 195.814 179.283 181.578 145.478 170.83C111.674 160.081 108.449 174.317 74.6749 163.578C40.8705 152.829 44.0951 138.594 10.3208 127.855C-23.4535 117.116 -26.7082 131.342 -60.4825 120.603" stroke="#3D405B" stroke-opacity="0.16" stroke-width="0.824934" stroke-miterlimit="10"/>
<path id="Vector_10" d="M409.353 289.639C375.579 278.9 372.354 293.135 338.55 282.387C304.776 271.648 308 257.412 274.196 246.664C240.422 235.925 237.197 250.16 203.393 239.412C169.618 228.673 172.843 214.437 139.039 203.689C105.234 192.94 102.01 207.176 68.2352 196.437C34.4308 185.688 37.6555 171.452 3.88115 160.713C-29.8932 149.974 -33.1479 164.2 -66.9222 153.461" stroke="#3D405B" stroke-opacity="0.16" stroke-width="0.824934" stroke-miterlimit="10"/>
<path id="Vector_11" d="M402.914 322.498C369.14 311.759 365.915 325.994 332.111 315.246C298.337 304.507 301.561 290.271 267.757 279.522C233.983 268.783 230.758 283.019 196.954 272.27C163.179 261.531 166.404 247.296 132.6 236.547C98.7952 225.799 95.5706 240.034 61.7963 229.295C27.9919 218.546 31.2166 204.311 -2.55775 193.572C-36.332 182.833 -39.5868 197.059 -73.3611 186.32" stroke="#3D405B" stroke-opacity="0.16" stroke-width="0.824934" stroke-miterlimit="10"/>
<path id="Vector_12" d="M396.474 355.356C362.699 344.617 359.475 358.853 325.67 348.104C291.896 337.365 295.121 323.13 261.316 312.381C227.542 301.642 224.317 315.878 190.513 305.129C156.738 294.39 159.963 280.154 126.159 269.406C92.3543 258.657 89.1297 272.893 55.3554 262.154C21.551 251.405 24.7756 237.17 -8.99866 226.431C-42.773 215.692 -46.0277 229.918 -79.802 219.179" stroke="#3D405B" stroke-opacity="0.16" stroke-width="0.824934" stroke-miterlimit="10"/>
<path id="Vector_13" d="M390.035 388.22C356.261 377.481 353.036 391.716 319.232 380.968C285.458 370.229 288.682 355.993 254.878 345.245C221.104 334.506 217.879 348.741 184.075 337.993C150.3 327.254 153.525 313.018 119.72 302.269C85.9161 291.521 82.6915 305.756 48.9171 295.017C15.1127 284.269 18.3374 270.033 -15.4369 259.294C-49.2112 248.555 -52.4659 262.781 -86.2403 252.042" stroke="#3D405B" stroke-opacity="0.16" stroke-width="0.824934" stroke-miterlimit="10"/>
</g>
</g>
</g>
</svg>
